<svg width="25" height="26" fill="none" xmlns="http://www.w3.org/2000/svg"><path d="M12.58 3.273h.139c1.284.005 7.792.052 9.547.523a3.14 3.14 0 0 1 2.21 2.22c.158.593.27 1.379.344 2.19l.016.162.034.407.013.162a50.4 50.4 0 0 1 .115 3.058v.117a50.073 50.073 0 0 1-.128 3.219l-.012.164-.014.162c-.078.894-.194 1.782-.367 2.435a3.141 3.141 0 0 1-2.211 2.218c-1.813.488-8.702.522-9.657.524h-.222c-.482 0-2.48-.01-4.573-.081l-.266-.01-.136-.006-.267-.01-.267-.012c-1.734-.076-3.386-.2-4.147-.406a3.141 3.141 0 0 1-2.21-2.217c-.174-.652-.29-1.54-.368-2.435l-.012-.164-.013-.162A48.442 48.442 0 0 1 0 12.15v-.193c.003-.336.016-1.497.1-2.778l.01-.16.006-.082.012-.162.035-.407.015-.162c.075-.811.186-1.599.344-2.19a3.14 3.14 0 0 1 2.21-2.22c.762-.203 2.413-.328 4.148-.406l.265-.01.27-.01.133-.005.268-.01c1.487-.049 2.974-.075 4.462-.08l.302-.002ZM10 8.289v7.528l6.495-3.763L10 8.29Z" fill="#0FA56F"/></svg>