<svg width="46" height="45" fill="none" xmlns="http://www.w3.org/2000/svg"><path d="M31.223 39.023a18.14 18.14 0 0 1-7.833 1.758c-10.08 0-18.282-8.201-18.282-18.281 0-4.324 1.487-8.408 4.22-11.683v3.245h2.812V5.626H3.702v2.813H7.7A20.897 20.897 0 0 0 2.296 22.5c0 11.631 9.463 21.094 21.094 21.094a20.953 20.953 0 0 0 9.042-2.03l-1.21-2.54Z" fill="#F8F8F8"/><path d="M30.42 12.656c-4.443 0-8.086 3.455-8.406 7.819a8.395 8.395 0 0 0-5.656-2.194h-5.625v5.625c0 4.654 3.786 8.438 8.438 8.438h2.812v5.625h2.813v-11.25h2.812c4.652 0 8.438-3.785 8.438-8.438v-5.625H30.42ZM19.17 29.531a5.63 5.63 0 0 1-5.624-5.625v-2.812h2.812a5.63 5.63 0 0 1 5.625 5.625v.824l-3.224-3.225-1.989 1.989 3.225 3.224h-.824Zm14.063-11.25a5.63 5.63 0 0 1-5.625 5.625h-.824l3.225-3.224-1.989-1.989-3.224 3.225v-.824a5.63 5.63 0 0 1 5.625-5.625h2.812v2.812Z" fill="#F8F8F8"/><path d="M44.484 22.5c0-11.631-9.463-21.094-21.094-21.094a20.953 20.953 0 0 0-9.042 2.03l1.209 2.54A18.14 18.14 0 0 1 23.39 4.22c10.08 0 18.281 8.201 18.281 18.281 0 4.324-1.486 8.408-4.219 11.683v-3.245H34.64v8.437h8.437v-2.813h-3.996A20.897 20.897 0 0 0 44.484 22.5Z" fill="#F8F8F8"/></svg>