<svg width="50" height="51" fill="none" xmlns="http://www.w3.org/2000/svg"><g clip-path="url('#clip0_461_74')" stroke="#335800" stroke-width="4" stroke-linecap="round" stroke-linejoin="round"><path d="M22.119 29.504c1.779 0 3.485-.707 4.743-1.965m-4.743 1.965a6.708 6.708 0 0 1-4.744-1.965m4.744 1.965v5.03m4.743-6.995a6.708 6.708 0 0 0 1.965-4.744m-1.965 4.744 3.557 3.556m-1.592-8.3c0-1.779-.707-3.485-1.965-4.743m1.965 4.743h5.031m-6.996-4.743a6.709 6.709 0 0 0-4.743-1.965m4.743 1.965 3.557-3.557m-8.3 1.592c-1.78 0-3.486.707-4.744 1.965m4.744-1.965v-5.031m-4.744 6.996a6.708 6.708 0 0 0-1.965 4.743m1.965-4.743-3.556-3.557m1.591 8.3c0 1.78.707 3.486 1.965 4.744m-1.965-4.744H10.38m6.996 4.744-3.556 3.556m7.18-20.04h2.238m6.392 2.649 1.581 1.583m2.648 6.39v2.237m-2.648 6.392-1.581 1.58m-6.392 2.649H21m-6.392-2.648-1.581-1.581m-2.648-6.392v-2.238m2.648-6.391 1.581-1.581"/><path d="M48.438 49.114 36.654 37.331M22.12 43.35c11.354 0 20.556-9.203 20.556-20.555 0-11.353-9.204-20.557-20.556-20.557S1.563 11.443 1.563 22.795c0 11.353 9.204 20.557 20.556 20.557Z"/></g><defs><clipPath id="clip0_461_74"><path fill="#fff" transform="translate(0 .677)" d="M0 0h50v50H0z"/></clipPath></defs></svg>