<svg width="46" height="45" fill="none" xmlns="http://www.w3.org/2000/svg"><path d="M18.617 16.875a6.177 6.177 0 0 1 4.773-2.25 6.188 6.188 0 1 1-4.774 2.25m13.209 3.938a8.401 8.401 0 0 0-.972-3.938h9.412a3.375 3.375 0 0 1 3.375 3.375v1.125c0 3.57-2.714 7.227-7.46 8.514A5.624 5.624 0 0 0 31.266 27h-2.138a8.414 8.414 0 0 0 2.7-6.188m-.562 8.438a3.366 3.366 0 0 1 3.375 3.375v1.125c0 4.435-4.185 9-11.25 9s-11.25-4.565-11.25-9v-1.125a3.368 3.368 0 0 1 3.375-3.375h15.75ZM3.14 21.375c0 3.57 2.713 7.227 7.458 8.514A5.624 5.624 0 0 1 15.515 27h2.137a8.414 8.414 0 0 1-2.7-6.188c0-1.422.351-2.763.974-3.937H6.515A3.375 3.375 0 0 0 3.14 20.25v1.125ZM20.577 8.437a6.187 6.187 0 1 0-12.375 0 6.187 6.187 0 0 0 12.375 0Zm18 0a6.187 6.187 0 1 0-12.375 0 6.187 6.187 0 0 0 12.375 0Z" fill="#F8F8F8"/></svg>