<svg width="46" height="45" fill="none" xmlns="http://www.w3.org/2000/svg"><path d="M41.812 28.455c-.084-.643-.45-1.194-.975-1.448l-6.76-3.225-2.86-1.363c1.25-.787 2.263-2 2.927-3.463.553-1.22.84-2.543.84-3.881 0-.79-.125-1.538-.3-2.26-.85-3.503-3.585-6.083-6.868-6.083-2.923 0-5.405 2.051-6.516 4.972a10.186 10.186 0 0 0-.628 2.735 8.088 8.088 0 0 0-.01 1.19c.07 1.231.385 2.435.926 3.542.685 1.405 1.7 2.563 2.937 3.308l-2.738 1.275-6.98 3.25c-.454.213-.792.651-.933 1.179a2.16 2.16 0 0 0-.071.553v7.67c0 1.027.716 1.86 1.6 1.86H40.23c.884 0 1.6-.833 1.6-1.86v-7.67c0-.095-.005-.189-.017-.28Z" fill="#F8F8F8"/><path d="m18.541 22.651 1.283-.653c-1.424-1.893-2.28-4.3-2.28-6.923 0-1.818.413-3.532 1.14-5.044a5.044 5.044 0 0 0-2.243-.546c-3.764 0-6.833 4.326-6.994 9.75h-.008v2.303c0 .483.392.875.876.875h3.19c.036.023.071.049.108.071L5.76 26.14c-.49.23-.812.783-.812 1.4v6.197c0 .83.58 1.503 1.294 1.503h5.189v-6.502c0-1.683.93-3.205 2.374-3.88l4.736-2.206Z" fill="#F8F8F8"/></svg>