<svg width="50" height="51" fill="none" xmlns="http://www.w3.org/2000/svg"><path fill-rule="evenodd" clip-rule="evenodd" d="M25 8.49h12.5a4.688 4.688 0 0 1 4.688 4.687v12.5a4.688 4.688 0 0 1-4.688 4.687h-3.125v-4.687A9.375 9.375 0 0 0 25 16.302h-4.688v-3.125A4.688 4.688 0 0 1 25 8.489Zm-9.375 7.812v-3.125A9.375 9.375 0 0 1 25 3.802h12.5a9.375 9.375 0 0 1 9.375 9.375v12.5a9.375 9.375 0 0 1-9.375 9.375h-3.125v3.125A9.375 9.375 0 0 1 25 47.552H12.5a9.375 9.375 0 0 1-9.375-9.375v-12.5a9.375 9.375 0 0 1 9.375-9.375h3.125Zm14.063 18.75v3.125A4.688 4.688 0 0 1 25 42.864H12.5a4.687 4.687 0 0 1-4.688-4.687v-12.5a4.688 4.688 0 0 1 4.688-4.688h3.125v4.688A9.375 9.375 0 0 0 25 35.052h4.688Zm0-4.688H25a4.688 4.688 0 0 1-4.688-4.687v-4.688H25a4.687 4.687 0 0 1 4.688 4.688v4.687Z" fill="#335800"/></svg>