<svg width="50" height="51" fill="none" xmlns="http://www.w3.org/2000/svg"><path d="M14.583 11.093a4.167 4.167 0 1 1-8.333 0 4.167 4.167 0 0 1 8.333 0Z" fill="#335800"/><path d="M14.583 11.093a4.167 4.167 0 0 1-4.166 4.167m4.166-4.167a4.166 4.166 0 1 0-4.166 4.167m4.166-4.167h6.25M10.417 15.26v6.25" stroke="#335800" stroke-width="4" stroke-linecap="round" stroke-linejoin="round"/><path d="M14.583 40.26a4.167 4.167 0 1 0-8.333 0 4.167 4.167 0 0 0 8.333 0Z" fill="#335800"/><path d="M14.583 40.26a4.167 4.167 0 0 0-4.166-4.166m4.166 4.166a4.166 4.166 0 1 1-4.166-4.166m4.166 4.166h6.25m-10.416-4.166v-6.25" stroke="#335800" stroke-width="4" stroke-linecap="round" stroke-linejoin="round"/><path d="M35.417 40.26a4.167 4.167 0 1 1 8.333 0 4.167 4.167 0 0 1-8.333 0Z" fill="#335800"/><path d="M35.417 40.26a4.167 4.167 0 0 1 4.167-4.166m-4.167 4.166a4.167 4.167 0 1 0 4.167-4.166m-4.167 4.166h-6.25m10.417-4.166v-6.25" stroke="#335800" stroke-width="4" stroke-linecap="round" stroke-linejoin="round"/><path d="M35.417 11.093a4.167 4.167 0 1 0 8.333 0 4.167 4.167 0 0 0-8.333 0Z" fill="#335800"/><path d="M35.416 11.093a4.167 4.167 0 0 0 4.167 4.167m-4.167-4.167a4.166 4.166 0 1 1 4.167 4.167m-4.167-4.167h-6.25m10.417 4.167v6.25m-21.875 4.167h14.583M25 32.968V18.385" stroke="#335800" stroke-width="4" stroke-linecap="round" stroke-linejoin="round"/></svg>