<svg width="46" height="45" fill="none" xmlns="http://www.w3.org/2000/svg"><g clip-path="url('#clip0_409_458')" fill="#F8F8F8"><path d="M21.083 28.557a1.877 1.877 0 0 0-.075-2.72c-4.8-4.33-7.65-7.274-6.862-10.218.412-1.519 1.762-2.494 3.337-2.494 2.082 0 2.888 1.22 5.025 3.75h1.744c2.1-2.456 2.869-3.75 5.025-3.75 1.631 0 2.906 1.013 3.319 2.475a16.453 16.453 0 0 1 1.875-.112c.675 0 1.312.056 1.931.15-.45-3.581-3.394-6.263-7.106-6.263-.225 0-.431.057-.656.075.487-1.33.58-2.868-.338-4.556-.806-1.519-2.287-2.681-3.975-2.944a5.631 5.631 0 0 0-6.562 5.55c0 .694.15 1.332.375 1.95-.225-.018-.432-.075-.657-.075-4.05 0-7.218 3.17-7.218 7.22 0 4.18 3.243 7.518 8.25 12.018a1.864 1.864 0 0 0 2.568-.056Z"/><path d="M44.99 32.344c-1.013-1.632-2.382-2.306-3.77-2.55.132-.188.282-.338.395-.525 2.024-3.506.862-7.838-2.644-9.863-3.619-2.081-8.138-.937-14.531 1.125-.957.3-1.482 1.313-1.238 2.269a1.88 1.88 0 0 0 2.4 1.294c6.15-1.988 10.125-3 12.281-.844 1.106 1.106 1.275 2.775.488 4.144-1.05 1.8-2.494 1.875-5.757 2.475l-.88 1.518c1.087 3.038 1.818 4.37.73 6.225-.993 1.707-3.018 2.25-4.743 1.276-.113-.057-.206-.17-.319-.244-.563 1.256-1.2 2.325-1.931 3.244v.018c3.562 2.325 8.137 1.2 10.237-2.419.113-.187.169-.393.263-.6.412.507.9.957 1.5 1.294 2.962 1.707 6.825.431 8.081-2.906.6-1.612.337-3.469-.563-4.931Z"/><path d="M23.577 28.2c-1.35 6.338-2.475 10.275-5.419 11.063-1.518.412-3.037-.282-3.825-1.65-1.05-1.8-.375-3.113.732-6.225l-.863-1.52c-3.187-.58-4.687-.618-5.756-2.474-.994-1.706-.45-3.75 1.275-4.744.169-.094.356-.15.544-.206a11.674 11.674 0 0 1-1.257-2.569c-.45-.206-.675-.3-1.125-.487a7.155 7.155 0 0 0-2.68 9.88c.112.188.262.338.393.526-1.406.244-2.775.919-3.769 2.55-.9 1.462-1.162 3.319-.562 4.931a5.625 5.625 0 0 0 8.08 2.906 5.273 5.273 0 0 0 1.5-1.293c.095.206.15.412.263.6 2.025 3.506 6.357 4.668 9.863 2.643 3.619-2.08 4.894-6.58 6.3-13.143a1.868 1.868 0 0 0-1.35-2.194 1.877 1.877 0 0 0-2.344 1.406Z"/></g><defs><clipPath id="clip0_409_458"><path fill="#fff" transform="translate(.89)" d="M0 0h45v45H0z"/></clipPath></defs></svg>