<svg width="50" height="51" fill="none" xmlns="http://www.w3.org/2000/svg"><path d="M45.23 18.823c2.603-2.605 1.416-5.646 0-7.125l-6.25-6.25c-2.626-2.605-5.647-1.417-7.126 0L28.313 9.01h-5.396c-3.959 0-6.25 2.083-7.417 4.48l-9.25 9.25v8.333L4.77 32.53c-2.603 2.625-1.416 5.646 0 7.125l6.25 6.25c1.126 1.125 2.334 1.542 3.48 1.542 1.48 0 2.833-.73 3.646-1.542l5.625-5.646h7.479c3.542 0 5.333-2.208 5.98-4.375 2.353-.625 3.645-2.417 4.166-4.167 3.229-.833 4.437-3.895 4.437-6.041v-6.25h-1.229l.625-.604Zm-3.563 6.854c0 .937-.396 2.083-2.084 2.083H37.5v2.083c0 .938-.396 2.084-2.083 2.084h-2.084v2.083c0 .938-.395 2.083-2.083 2.083h-9.188l-6.833 6.834c-.646.604-1.02.25-1.25.02L7.75 36.74c-.604-.646-.25-1.02-.02-1.25l2.687-2.708v-8.333l4.166-4.167v3.312c0 2.521 1.667 6.25 6.25 6.25 4.584 0 6.25-3.729 6.25-6.25h14.584v2.084Zm.604-9.813-3.542 3.563H22.917v4.166c0 .938-.396 2.084-2.084 2.084-1.687 0-2.083-1.146-2.083-2.084v-6.25c0-.958.354-4.166 4.167-4.166h7.104l4.75-4.75c.646-.604 1.02-.25 1.25-.021l6.229 6.208c.604.646.25 1.021.02 1.25Z" fill="#075700"/></svg>