<svg width="25" height="26" fill="none" xmlns="http://www.w3.org/2000/svg"><g clip-path="url('#clip0_470_360')" fill="#0FA56F"><path d="M12.5 8.483a4.167 4.167 0 1 0 0 8.333 4.167 4.167 0 0 0 0-8.333Z"/><path fill-rule="evenodd" clip-rule="evenodd" d="M7.5.15A7.5 7.5 0 0 0 0 7.65v10a7.5 7.5 0 0 0 7.5 7.5h10a7.5 7.5 0 0 0 7.5-7.5v-10a7.5 7.5 0 0 0-7.5-7.5h-10Zm-.833 12.5a5.833 5.833 0 1 1 11.666 0 5.833 5.833 0 0 1-11.666 0Zm11.666-5.834H20V5.15h-1.667v1.667Z"/></g><defs><clipPath id="clip0_470_360"><path fill="#fff" transform="translate(0 .15)" d="M0 0h25v25H0z"/></clipPath></defs></svg>