<svg width="25" height="26" fill="none" xmlns="http://www.w3.org/2000/svg"><g clip-path="url('#clip0_323_277')" fill="#0FA56F"><path d="M12.5 8.833a4.167 4.167 0 1 0 0 8.333 4.167 4.167 0 0 0 0-8.333Z"/><path fill-rule="evenodd" clip-rule="evenodd" d="M7.5.5A7.5 7.5 0 0 0 0 8v10a7.5 7.5 0 0 0 7.5 7.5h10A7.5 7.5 0 0 0 25 18V8A7.5 7.5 0 0 0 17.5.5h-10ZM6.667 13a5.833 5.833 0 1 1 11.666 0 5.833 5.833 0 0 1-11.666 0Zm11.666-5.833H20V5.5h-1.667v1.667Z"/></g><defs><clipPath id="clip0_323_277"><path fill="#fff" transform="translate(0 .5)" d="M0 0h25v25H0z"/></clipPath></defs></svg>