<svg width="50" height="51" fill="none" xmlns="http://www.w3.org/2000/svg"><path d="M43.75 38.177H30.875a6.25 6.25 0 0 0-3.791-3.792V27.76h14.583a2.083 2.083 0 0 0 0-4.166h-2.083v-12.5a6.25 6.25 0 0 0-6.25-6.25H16.667a6.25 6.25 0 0 0-6.25 6.25v12.5H8.334a2.083 2.083 0 1 0 0 4.166h14.583v6.625a6.249 6.249 0 0 0-3.792 3.792H6.25a2.083 2.083 0 0 0 0 4.167h12.875a6.25 6.25 0 0 0 11.75 0H43.75a2.083 2.083 0 1 0 0-4.167ZM14.584 23.594v-12.5a2.083 2.083 0 0 1 2.083-2.084h16.667a2.083 2.083 0 0 1 2.083 2.084v12.5H14.584ZM25 42.344a2.083 2.083 0 1 1 0-4.166 2.083 2.083 0 0 1 0 4.166Z" fill="#335800"/></svg>