<svg width="25" height="26" fill="none" xmlns="http://www.w3.org/2000/svg"><path d="M12.5.15C19.41.15 25 5.738 25 12.65c0 6.91-5.59 12.5-12.5 12.5S0 19.56 0 12.65C0 5.738 5.59.15 12.5.15Zm-2.286 19.089c5.536 0 8.572-4.59 8.572-8.572v-.393a5.976 5.976 0 0 0 1.5-1.571 6.902 6.902 0 0 1-1.732.482 2.977 2.977 0 0 0 1.321-1.66 6.52 6.52 0 0 1-1.91.732 3.007 3.007 0 0 0-2.197-.947 3.026 3.026 0 0 0-3.018 3.018c0 .232.018.464.09.679a8.56 8.56 0 0 1-6.215-3.143 3.11 3.11 0 0 0-.41 1.518c0 1.035.535 1.964 1.339 2.5-.5 0-.965-.143-1.358-.375v.035a3.027 3.027 0 0 0 2.411 2.965c-.25.071-.518.107-.786.107-.196 0-.375-.018-.571-.054a2.998 2.998 0 0 0 2.804 2.09 6.104 6.104 0 0 1-3.75 1.285c-.25 0-.483 0-.715-.036a8.455 8.455 0 0 0 4.607 1.358" fill="#0FA56F"/></svg>