<svg width="25" height="26" fill="none" xmlns="http://www.w3.org/2000/svg"><path d="M23.214.651H1.78C.798.651 0 1.461 0 2.454v21.395c0 .993.798 1.802 1.78 1.802h21.434c.982 0 1.786-.809 1.786-1.802V2.454C25 1.46 24.196.65 23.214.65ZM7.556 22.08H3.85V10.15h3.711v11.93h-.005ZM5.703 8.52a2.15 2.15 0 0 1 0-4.297c1.183 0 2.149.965 2.149 2.148 0 1.189-.96 2.149-2.149 2.149Zm15.742 13.56H17.74v-5.804c0-1.384-.028-3.164-1.925-3.164-1.931 0-2.227 1.507-2.227 3.064v5.904H9.883V10.15h3.555v1.629h.05c.496-.938 1.707-1.926 3.51-1.926 3.75 0 4.447 2.473 4.447 5.687v6.54Z" fill="#0FA56F"/></svg>