<svg width="25" height="26" fill="none" xmlns="http://www.w3.org/2000/svg"><path d="M12.5.62C19.41.62 25 6.207 25 13.12c0 6.91-5.59 12.5-12.5 12.5S0 20.03 0 13.12C0 6.207 5.59.62 12.5.62Zm-2.286 19.088c5.536 0 8.572-4.589 8.572-8.571v-.393a5.975 5.975 0 0 0 1.5-1.571 6.902 6.902 0 0 1-1.732.482 2.977 2.977 0 0 0 1.321-1.66 6.52 6.52 0 0 1-1.91.731 3.007 3.007 0 0 0-2.197-.946 3.026 3.026 0 0 0-3.018 3.018c0 .232.018.464.09.678a8.56 8.56 0 0 1-6.215-3.143 3.11 3.11 0 0 0-.41 1.518c0 1.036.535 1.965 1.339 2.5-.5 0-.965-.143-1.358-.375v.036a3.027 3.027 0 0 0 2.411 2.964c-.25.072-.518.107-.786.107-.196 0-.375-.017-.571-.053a2.998 2.998 0 0 0 2.804 2.09 6.105 6.105 0 0 1-3.75 1.285c-.25 0-.483 0-.715-.036a8.455 8.455 0 0 0 4.607 1.357" fill="#0FA56F"/></svg>