<svg width="25" height="26" fill="none" xmlns="http://www.w3.org/2000/svg"><path d="M12.5.651c6.91 0 12.5 5.59 12.5 12.5 0 6.911-5.59 12.5-12.5 12.5S0 20.062 0 13.151C0 6.241 5.59.651 12.5.651Zm-2.286 19.09c5.536 0 8.572-4.59 8.572-8.572v-.393a5.977 5.977 0 0 0 1.5-1.571 6.902 6.902 0 0 1-1.732.482 2.977 2.977 0 0 0 1.321-1.66 6.52 6.52 0 0 1-1.91.732 3.007 3.007 0 0 0-2.197-.947 3.026 3.026 0 0 0-3.018 3.018c0 .232.018.464.09.678a8.56 8.56 0 0 1-6.215-3.142 3.11 3.11 0 0 0-.41 1.518c0 1.035.535 1.964 1.339 2.5-.5 0-.965-.143-1.358-.376v.036a3.027 3.027 0 0 0 2.411 2.964c-.25.072-.518.108-.786.108-.196 0-.375-.018-.571-.054a2.998 2.998 0 0 0 2.804 2.09 6.105 6.105 0 0 1-3.75 1.285c-.25 0-.483 0-.715-.036a8.456 8.456 0 0 0 4.607 1.358" fill="#0FA56F"/></svg>