<svg width="25" height="26" fill="none" xmlns="http://www.w3.org/2000/svg"><path d="M23.214.31H1.78C.798.31 0 1.12 0 2.114v21.395c0 .993.798 1.803 1.78 1.803h21.434c.982 0 1.786-.81 1.786-1.803V2.113c0-.993-.804-1.802-1.786-1.802ZM7.556 21.74H3.85V9.807h3.711V21.74h-.005ZM5.703 8.178a2.15 2.15 0 0 1 0-4.297c1.183 0 2.149.965 2.149 2.148 0 1.189-.96 2.149-2.149 2.149Zm15.742 13.56H17.74v-5.804c0-1.383-.028-3.164-1.925-3.164-1.931 0-2.227 1.507-2.227 3.064v5.904H9.883V9.81h3.555v1.629h.05c.496-.938 1.707-1.925 3.51-1.925 3.75 0 4.447 2.472 4.447 5.686v6.54Z" fill="#0FA56F"/></svg>