<svg width="25" height="26" fill="none" xmlns="http://www.w3.org/2000/svg"><path d="M23.214.63H1.78C.798.63 0 1.44 0 2.434v21.395c0 .994.798 1.803 1.78 1.803h21.434c.982 0 1.786-.81 1.786-1.803V2.433c0-.993-.804-1.802-1.786-1.802ZM7.556 22.06H3.85V10.128h3.711v11.93h-.005ZM5.703 8.5a2.15 2.15 0 0 1 0-4.298c1.183 0 2.149.966 2.149 2.149 0 1.188-.96 2.148-2.149 2.148Zm15.742 13.56H17.74v-5.804c0-1.384-.028-3.164-1.925-3.164-1.931 0-2.227 1.506-2.227 3.063v5.904H9.883V10.13h3.555v1.63h.05c.496-.938 1.707-1.926 3.51-1.926 3.75 0 4.447 2.472 4.447 5.686v6.54Z" fill="#0FA56F"/></svg>